<?xml version="1.0" encoding="UTF-8" standalone="no"?>
<!DOCTYPE svg PUBLIC "-//W3C//DTD SVG 1.1//EN" "http://www.w3.org/Graphics/SVG/1.1/DTD/svg11.dtd">
<svg width="100%" height="100%" viewBox="0 0 3400 2200" version="1.1" xmlns="http://www.w3.org/2000/svg" xmlns:xlink="http://www.w3.org/1999/xlink" xml:space="preserve" xmlns:serif="http://www.serif.com/" style="fill-rule:evenodd;clip-rule:evenodd;stroke-linecap:round;stroke-linejoin:round;stroke-miterlimit:1.5;">
    <g>
        <g id="Layer2">
            <g transform="matrix(9.4433,9.58402,-0.94654,0.932642,-10584.4,-12785.9)">
                <rect x="1314.58" y="610.68" width="95.703" height="101.322" style="stroke:black;stroke-width:0.23px;"/>
            </g>
            <g transform="matrix(2.80043,-2.80043,0.707107,0.707107,-2848.67,4044.28)">
                <ellipse cx="1368.77" cy="307.581" rx="16.999" ry="35.906" style="stroke:white;stroke-width:0.87px;"/>
            </g>
            <g transform="matrix(2.8147,-2.8147,0.707107,0.707107,-2758.98,4174.19)">
                <ellipse cx="1368.77" cy="307.581" rx="16.999" ry="35.906" style="stroke:white;stroke-width:0.86px;"/>
            </g>
            <g transform="matrix(0.853342,-0.853342,0.707107,0.707107,-201.05,1421.36)">
                <rect x="1347.18" y="382.56" width="111.998" height="65.693" style="stroke:black;stroke-width:1.18px;"/>
            </g>
            <g transform="matrix(-0.523309,0.516229,-1.02202,-1.03604,4964.43,1881.93)">
                <path d="M2256.07,1466.03L2347.65,1640.45L2164.49,1640.45L2256.07,1466.03Z" style="stroke:black;stroke-width:2.17px;"/>
            </g>
            <path d="M2280.01,1522.07C2270.61,1515.96 2258.41,1510.42 2248.83,1504.59C2247.19,1503.59 2240.82,1499.93 2240.26,1498.29C2240,1497.53 2244.53,1497.05 2245,1496.85C2246.65,1496.14 2248.52,1494.15 2248.76,1492.64C2249.77,1486.25 2245.75,1482.9 2243.75,1477.53C2243.58,1477.06 2244.6,1478.03 2245.01,1478.3C2245.8,1478.82 2246.57,1479.37 2247.33,1479.94C2249.6,1481.65 2251.79,1483.91 2254.25,1485.34C2255.03,1485.79 2254.23,1483.54 2254.14,1482.65C2253.87,1479.99 2252.39,1477.46 2252.15,1474.92C2252.08,1474.26 2253.61,1475.49 2254.07,1475.96C2255.04,1476.95 2255.66,1478.08 2256.5,1479.18C2259.08,1482.52 2260.74,1486.42 2262.59,1490.19C2267.97,1501.15 2274.23,1511.37 2280.01,1522.07Z" style="stroke:white;stroke-width:2.31px;"/>
            <g transform="matrix(1.295,0,0,1.31921,-409.114,-203.632)">
                <path d="M1340.67,588.715C1340.67,588.715 1941.39,1181.79 1937.97,1180.44" style="fill:none;stroke:white;stroke-width:1.88px;"/>
            </g>
            <g transform="matrix(1.29352,0,0,1.31159,-376.465,-236.549)">
                <path d="M1340.67,588.715C1340.67,588.715 1941.39,1181.79 1937.97,1180.44" style="fill:none;stroke:white;stroke-width:1.89px;"/>
            </g>
            <g transform="matrix(1.30611,0,0,1.33894,-475.959,-195.718)">
                <path d="M1340.67,588.715C1340.67,588.715 1941.39,1181.79 1937.97,1180.44" style="fill:none;stroke:white;stroke-width:1.86px;"/>
            </g>
        </g>
        <g id="Layer1">
            <path d="M1380.26,1227.61C1378.91,1167.44 1442.77,1085.59 1490.15,1021.59C1591.15,885.187 1708.93,764.48 1822.25,638.678C1887.58,566.153 1957.83,503.224 2033.46,441.83C2049.97,428.425 2066.63,414.661 2084.66,403.303C2086.58,402.097 2101.15,397.277 2107.44,400.071C2115.71,403.744 2115.51,415.81 2115.87,424.212C2116.76,444.94 2104.5,466.482 2096.87,484.871C2073.5,541.274 2031.57,603.877 1996.2,653.252C1968.24,692.284 1951.18,715.757 1923.32,754.881C1901.02,786.196 1872.27,821.815 1848.05,851.737C1768.25,950.338 1680.59,1042.1 1599.49,1139.58C1588.35,1152.97 1576.83,1165.99 1565,1178.77C1526.79,1220.08 1401.07,1353.13 1380.26,1227.61Z" style="stroke:black;stroke-width:12.25px;"/>
            <path d="M1418.19,1282.02C1419.04,1282.61 1418.41,1282.8 1419.45,1282.87C1421.69,1283.03 1423.45,1280.83 1425.44,1279.78C1445.03,1269.39 1463.42,1256.31 1480.79,1241.79C1509.78,1217.56 1536.03,1189.52 1560.77,1164.56C1576.95,1148.13 1591.18,1133.09 1604.96,1118.08C1625.6,1095.62 1645.23,1073.24 1668.93,1046.42C1713.63,995.841 1785.19,911.785 1850.28,832.269C1895.82,776.628 1938.16,723.192 1966.09,685.111C1991.34,650.389 2013.61,622.376 2032.66,595.033C2047.39,573.913 2059.86,553.043 2071.86,530.846C2084.73,507.04 2096.99,481.571 2107.61,450.774C2111.11,440.622 2114.91,430.022 2117.58,418.502C2117.87,417.276 2118.03,416.042 2118.25,414.789C2118.74,413.124 2117.79,411.373 2116.12,410.88C2114.46,410.387 2112.71,411.339 2112.22,413.004C2111.72,414.166 2111.18,415.275 2110.75,416.444C2106.66,427.399 2103.49,438.042 2099.84,448.012C2088.81,478.102 2077.55,503.535 2064.24,526.59C2051.82,548.104 2037.57,567.358 2022.52,587.753C2002.74,614.548 1981.04,642.916 1955.69,677.519C1928.03,715.594 1886,768.972 1840.95,824.686C1776.44,904.471 1705.69,989.007 1661.42,1039.84C1637.97,1066.79 1618.55,1089.27 1598.12,1111.85C1584.53,1126.89 1570.48,1141.96 1554.51,1158.44C1530.27,1183.58 1504.64,1211.86 1476.12,1236.27C1459.3,1250.67 1441.52,1263.8 1422.37,1273.99C1420.44,1275.02 1417.72,1275.13 1416.52,1276.96C1415.95,1277.82 1416.51,1277.44 1416.45,1278.47C1415.47,1278.95 1415.07,1280.13 1415.55,1281.11C1416.03,1282.09 1417.21,1282.5 1418.19,1282.02Z" style="fill:white;"/>
            <g transform="matrix(1.28347,0,0,1.23723,68.6514,-579.907)">
                <path d="M1279.23,1527.71L1727.22,1703.5L1279.23,1879.29L831.233,1703.5L1279.23,1527.71Z" style="fill:url(#_Linear1);"/>
            </g>
            <g id="Layer4">
                <g transform="matrix(1.67323,6.93889e-18,-1.38778e-17,1.16592,-846.887,-129.57)">
                    <path d="M1214.13,1403.89L1246.99,1421.43L1214.13,1438.98L1181.28,1421.43L1214.13,1403.89Z" style="fill:none;stroke:white;stroke-width:0.73px;"/>
                </g>
                <g transform="matrix(1.67323,6.93889e-18,-1.38778e-17,1.16592,-791.917,-109.114)">
                    <path d="M1214.13,1403.89L1246.99,1421.43L1214.13,1438.98L1181.28,1421.43L1214.13,1403.89Z" style="fill:none;stroke:white;stroke-width:0.73px;"/>
                </g>
                <g transform="matrix(1.67323,6.93889e-18,-1.38778e-17,1.16592,-736.946,-129.57)">
                    <path d="M1214.13,1403.89L1246.99,1421.43L1214.13,1438.98L1181.28,1421.43L1214.13,1403.89Z" style="fill:none;stroke:white;stroke-width:0.73px;"/>
                </g>
                <g transform="matrix(1.67323,6.93889e-18,-1.38778e-17,1.16592,-681.975,-150.025)">
                    <path d="M1214.13,1403.89L1246.99,1421.43L1214.13,1438.98L1181.28,1421.43L1214.13,1403.89Z" style="fill:none;stroke:white;stroke-width:0.73px;"/>
                </g>
                <g transform="matrix(1.67323,6.93889e-18,-1.38778e-17,1.16592,-627.005,-170.481)">
                    <path d="M1214.13,1403.89L1246.99,1421.43L1214.13,1438.98L1181.28,1421.43L1214.13,1403.89Z" style="fill:none;stroke:white;stroke-width:0.73px;"/>
                </g>
                <g transform="matrix(1.67323,6.93889e-18,-1.38778e-17,1.16592,-572.034,-190.936)">
                    <path d="M1214.13,1403.89L1246.99,1421.43L1214.13,1438.98L1181.28,1421.43L1214.13,1403.89Z" style="fill:none;stroke:white;stroke-width:0.73px;"/>
                </g>
                <g transform="matrix(1.67323,6.93889e-18,-1.38778e-17,1.16592,-517.064,-211.392)">
                    <path d="M1214.13,1403.89L1246.99,1421.43L1214.13,1438.98L1181.28,1421.43L1214.13,1403.89Z" style="fill:none;stroke:white;stroke-width:0.73px;"/>
                </g>
                <g transform="matrix(1.67323,6.93889e-18,-1.38778e-17,1.16592,-462.093,-231.847)">
                    <path d="M1214.13,1403.89L1246.99,1421.43L1214.13,1438.98L1181.28,1421.43L1214.13,1403.89Z" style="fill:none;stroke:white;stroke-width:0.73px;"/>
                </g>
                <g transform="matrix(1.67323,6.93889e-18,-1.38778e-17,1.16592,-407.122,-252.303)">
                    <path d="M1214.13,1403.89L1246.99,1421.43L1214.13,1438.98L1181.28,1421.43L1214.13,1403.89Z" style="fill:none;stroke:white;stroke-width:0.73px;"/>
                </g>
                <g transform="matrix(1.67323,6.93889e-18,-1.38778e-17,1.16592,-736.946,-88.6587)">
                    <path d="M1214.13,1403.89L1246.99,1421.43L1214.13,1438.98L1181.28,1421.43L1214.13,1403.89Z" style="fill:none;stroke:white;stroke-width:0.73px;"/>
                </g>
                <g transform="matrix(1.67323,6.93889e-18,-1.38778e-17,1.16592,-681.975,-109.114)">
                    <path d="M1214.13,1403.89L1246.99,1421.43L1214.13,1438.98L1181.28,1421.43L1214.13,1403.89Z" style="fill:none;stroke:white;stroke-width:0.73px;"/>
                </g>
                <g transform="matrix(1.67323,6.93889e-18,-1.38778e-17,1.16592,-627.005,-129.57)">
                    <path d="M1214.13,1403.89L1246.99,1421.43L1214.13,1438.98L1181.28,1421.43L1214.13,1403.89Z" style="fill:none;stroke:white;stroke-width:0.73px;"/>
                </g>
                <g transform="matrix(1.67323,6.93889e-18,-1.38778e-17,1.16592,-572.034,-150.025)">
                    <path d="M1214.13,1403.89L1246.99,1421.43L1214.13,1438.98L1181.28,1421.43L1214.13,1403.89Z" style="fill:none;stroke:white;stroke-width:0.73px;"/>
                </g>
                <g transform="matrix(1.67323,6.93889e-18,-1.38778e-17,1.16592,-517.064,-170.481)">
                    <path d="M1214.13,1403.89L1246.99,1421.43L1214.13,1438.98L1181.28,1421.43L1214.13,1403.89Z" style="fill:none;stroke:white;stroke-width:0.73px;"/>
                </g>
                <g transform="matrix(1.67323,6.93889e-18,-1.38778e-17,1.16592,-462.093,-190.936)">
                    <path d="M1214.13,1403.89L1246.99,1421.43L1214.13,1438.98L1181.28,1421.43L1214.13,1403.89Z" style="fill:none;stroke:white;stroke-width:0.73px;"/>
                </g>
                <g transform="matrix(1.67323,6.93889e-18,-1.38778e-17,1.16592,-407.122,-211.392)">
                    <path d="M1214.13,1403.89L1246.99,1421.43L1214.13,1438.98L1181.28,1421.43L1214.13,1403.89Z" style="fill:none;stroke:white;stroke-width:0.73px;"/>
                </g>
                <g transform="matrix(1.67323,6.93889e-18,-1.38778e-17,1.16592,-352.152,-231.847)">
                    <path d="M1214.13,1403.89L1246.99,1421.43L1214.13,1438.98L1181.28,1421.43L1214.13,1403.89Z" style="fill:none;stroke:white;stroke-width:0.73px;"/>
                </g>
                <g transform="matrix(1.67323,6.93889e-18,-1.38778e-17,1.16592,-352.152,-190.936)">
                    <path d="M1214.13,1403.89L1246.99,1421.43L1214.13,1438.98L1181.28,1421.43L1214.13,1403.89Z" style="fill:none;stroke:white;stroke-width:0.73px;"/>
                </g>
                <g transform="matrix(1.67323,6.93889e-18,-1.38778e-17,1.16592,-407.122,-170.481)">
                    <path d="M1214.13,1403.89L1246.99,1421.43L1214.13,1438.98L1181.28,1421.43L1214.13,1403.89Z" style="fill:none;stroke:white;stroke-width:0.73px;"/>
                </g>
                <g transform="matrix(1.67323,6.93889e-18,-1.38778e-17,1.16592,-462.093,-150.025)">
                    <path d="M1214.13,1403.89L1246.99,1421.43L1214.13,1438.98L1181.28,1421.43L1214.13,1403.89Z" style="fill:none;stroke:white;stroke-width:0.73px;"/>
                </g>
                <g transform="matrix(1.67323,6.93889e-18,-1.38778e-17,1.16592,-517.064,-129.57)">
                    <path d="M1214.13,1403.89L1246.99,1421.43L1214.13,1438.98L1181.28,1421.43L1214.13,1403.89Z" style="fill:none;stroke:white;stroke-width:0.73px;"/>
                </g>
                <g transform="matrix(1.67323,6.93889e-18,-1.38778e-17,1.16592,-572.034,-109.114)">
                    <path d="M1214.13,1403.89L1246.99,1421.43L1214.13,1438.98L1181.28,1421.43L1214.13,1403.89Z" style="fill:none;stroke:white;stroke-width:0.73px;"/>
                </g>
                <g transform="matrix(1.67323,6.93889e-18,-1.38778e-17,1.16592,-627.005,-88.6587)">
                    <path d="M1214.13,1403.89L1246.99,1421.43L1214.13,1438.98L1181.28,1421.43L1214.13,1403.89Z" style="fill:none;stroke:white;stroke-width:0.73px;"/>
                </g>
                <g transform="matrix(1.67323,6.93889e-18,-1.38778e-17,1.16592,-681.975,-68.2031)">
                    <path d="M1214.13,1403.89L1246.99,1421.43L1214.13,1438.98L1181.28,1421.43L1214.13,1403.89Z" style="fill:none;stroke:white;stroke-width:0.73px;"/>
                </g>
                <g transform="matrix(1.67323,6.93889e-18,-1.38778e-17,1.16592,-627.005,-47.7476)">
                    <path d="M1214.13,1403.89L1246.99,1421.43L1214.13,1438.98L1181.28,1421.43L1214.13,1403.89Z" style="fill:none;stroke:white;stroke-width:0.73px;"/>
                </g>
                <g transform="matrix(1.67323,6.93889e-18,-1.38778e-17,1.16592,-572.034,-68.2031)">
                    <path d="M1214.13,1403.89L1246.99,1421.43L1214.13,1438.98L1181.28,1421.43L1214.13,1403.89Z" style="fill:none;stroke:white;stroke-width:0.73px;"/>
                </g>
                <g transform="matrix(1.67323,6.93889e-18,-1.38778e-17,1.16592,-517.064,-88.6587)">
                    <path d="M1214.13,1403.89L1246.99,1421.43L1214.13,1438.98L1181.28,1421.43L1214.13,1403.89Z" style="fill:none;stroke:white;stroke-width:0.73px;"/>
                </g>
                <g transform="matrix(1.67323,6.93889e-18,-1.38778e-17,1.16592,-462.093,-109.114)">
                    <path d="M1214.13,1403.89L1246.99,1421.43L1214.13,1438.98L1181.28,1421.43L1214.13,1403.89Z" style="fill:none;stroke:white;stroke-width:0.73px;"/>
                </g>
                <g transform="matrix(1.67323,6.93889e-18,-1.38778e-17,1.16592,-407.122,-129.57)">
                    <path d="M1214.13,1403.89L1246.99,1421.43L1214.13,1438.98L1181.28,1421.43L1214.13,1403.89Z" style="fill:none;stroke:white;stroke-width:0.73px;"/>
                </g>
                <g transform="matrix(1.67323,6.93889e-18,-1.38778e-17,1.16592,-352.152,-150.025)">
                    <path d="M1214.13,1403.89L1246.99,1421.43L1214.13,1438.98L1181.28,1421.43L1214.13,1403.89Z" style="fill:none;stroke:white;stroke-width:0.73px;"/>
                </g>
                <g transform="matrix(1.67323,6.93889e-18,-1.38778e-17,1.16592,-297.181,-170.481)">
                    <path d="M1214.13,1403.89L1246.99,1421.43L1214.13,1438.98L1181.28,1421.43L1214.13,1403.89Z" style="fill:none;stroke:white;stroke-width:0.73px;"/>
                </g>
                <g transform="matrix(1.67323,6.93889e-18,-1.38778e-17,1.16592,-297.181,-211.392)">
                    <path d="M1214.13,1403.89L1246.99,1421.43L1214.13,1438.98L1181.28,1421.43L1214.13,1403.89Z" style="fill:none;stroke:white;stroke-width:0.73px;"/>
                </g>
                <g transform="matrix(1.67323,6.93889e-18,-1.38778e-17,1.16592,-242.21,-190.936)">
                    <path d="M1214.13,1403.89L1246.99,1421.43L1214.13,1438.98L1181.28,1421.43L1214.13,1403.89Z" style="fill:none;stroke:white;stroke-width:0.73px;"/>
                </g>
                <g transform="matrix(1.67323,6.93889e-18,-1.38778e-17,1.16592,-242.21,-150.025)">
                    <path d="M1214.13,1403.89L1246.99,1421.43L1214.13,1438.98L1181.28,1421.43L1214.13,1403.89Z" style="fill:none;stroke:white;stroke-width:0.73px;"/>
                </g>
                <g transform="matrix(1.67323,6.93889e-18,-1.38778e-17,1.16592,-297.181,-129.57)">
                    <path d="M1214.13,1403.89L1246.99,1421.43L1214.13,1438.98L1181.28,1421.43L1214.13,1403.89Z" style="fill:none;stroke:white;stroke-width:0.73px;"/>
                </g>
                <g transform="matrix(1.67323,6.93889e-18,-1.38778e-17,1.16592,-352.152,-109.114)">
                    <path d="M1214.13,1403.89L1246.99,1421.43L1214.13,1438.98L1181.28,1421.43L1214.13,1403.89Z" style="fill:none;stroke:white;stroke-width:0.73px;"/>
                </g>
                <g transform="matrix(1.67323,6.93889e-18,-1.38778e-17,1.16592,-407.122,-88.6587)">
                    <path d="M1214.13,1403.89L1246.99,1421.43L1214.13,1438.98L1181.28,1421.43L1214.13,1403.89Z" style="fill:none;stroke:white;stroke-width:0.73px;"/>
                </g>
                <g transform="matrix(1.67323,6.93889e-18,-1.38778e-17,1.16592,-462.093,-68.2031)">
                    <path d="M1214.13,1403.89L1246.99,1421.43L1214.13,1438.98L1181.28,1421.43L1214.13,1403.89Z" style="fill:none;stroke:white;stroke-width:0.73px;"/>
                </g>
                <g transform="matrix(1.67323,6.93889e-18,-1.38778e-17,1.16592,-517.064,-47.7476)">
                    <path d="M1214.13,1403.89L1246.99,1421.43L1214.13,1438.98L1181.28,1421.43L1214.13,1403.89Z" style="fill:none;stroke:white;stroke-width:0.73px;"/>
                </g>
                <g transform="matrix(1.67323,6.93889e-18,-1.38778e-17,1.16592,-572.034,-27.2921)">
                    <path d="M1214.13,1403.89L1246.99,1421.43L1214.13,1438.98L1181.28,1421.43L1214.13,1403.89Z" style="fill:none;stroke:white;stroke-width:0.73px;"/>
                </g>
                <g transform="matrix(1.67323,6.93889e-18,-1.38778e-17,1.16592,-517.064,-6.83658)">
                    <path d="M1214.13,1403.89L1246.99,1421.43L1214.13,1438.98L1181.28,1421.43L1214.13,1403.89Z" style="fill:none;stroke:white;stroke-width:0.73px;"/>
                </g>
                <g transform="matrix(1.67323,6.93889e-18,-1.38778e-17,1.16592,-462.093,-27.2921)">
                    <path d="M1214.13,1403.89L1246.99,1421.43L1214.13,1438.98L1181.28,1421.43L1214.13,1403.89Z" style="fill:none;stroke:white;stroke-width:0.73px;"/>
                </g>
                <g transform="matrix(1.67323,6.93889e-18,-1.38778e-17,1.16592,-407.122,-47.7476)">
                    <path d="M1214.13,1403.89L1246.99,1421.43L1214.13,1438.98L1181.28,1421.43L1214.13,1403.89Z" style="fill:none;stroke:white;stroke-width:0.73px;"/>
                </g>
                <g transform="matrix(1.67323,6.93889e-18,-1.38778e-17,1.16592,-352.152,-68.2031)">
                    <path d="M1214.13,1403.89L1246.99,1421.43L1214.13,1438.98L1181.28,1421.43L1214.13,1403.89Z" style="fill:none;stroke:white;stroke-width:0.73px;"/>
                </g>
                <g transform="matrix(1.67323,6.93889e-18,-1.38778e-17,1.16592,-297.181,-88.6587)">
                    <path d="M1214.13,1403.89L1246.99,1421.43L1214.13,1438.98L1181.28,1421.43L1214.13,1403.89Z" style="fill:none;stroke:white;stroke-width:0.73px;"/>
                </g>
                <g transform="matrix(1.67323,6.93889e-18,-1.38778e-17,1.16592,-242.21,-109.114)">
                    <path d="M1214.13,1403.89L1246.99,1421.43L1214.13,1438.98L1181.28,1421.43L1214.13,1403.89Z" style="fill:none;stroke:white;stroke-width:0.73px;"/>
                </g>
                <g transform="matrix(1.67323,6.93889e-18,-1.38778e-17,1.16592,-462.093,13.6189)">
                    <path d="M1214.13,1403.89L1246.99,1421.43L1214.13,1438.98L1181.28,1421.43L1214.13,1403.89Z" style="fill:none;stroke:white;stroke-width:0.73px;"/>
                </g>
                <g transform="matrix(1.67323,6.93889e-18,-1.38778e-17,1.16592,-407.122,-6.83658)">
                    <path d="M1214.13,1403.89L1246.99,1421.43L1214.13,1438.98L1181.28,1421.43L1214.13,1403.89Z" style="fill:none;stroke:white;stroke-width:0.73px;"/>
                </g>
                <g transform="matrix(1.67323,6.93889e-18,-1.38778e-17,1.16592,-352.152,-27.2921)">
                    <path d="M1214.13,1403.89L1246.99,1421.43L1214.13,1438.98L1181.28,1421.43L1214.13,1403.89Z" style="fill:none;stroke:white;stroke-width:0.73px;"/>
                </g>
                <g transform="matrix(1.67323,6.93889e-18,-1.38778e-17,1.16592,-297.181,-47.7476)">
                    <path d="M1214.13,1403.89L1246.99,1421.43L1214.13,1438.98L1181.28,1421.43L1214.13,1403.89Z" style="fill:none;stroke:white;stroke-width:0.73px;"/>
                </g>
                <g transform="matrix(1.67323,6.93889e-18,-1.38778e-17,1.16592,-407.122,34.0745)">
                    <path d="M1214.13,1403.89L1246.99,1421.43L1214.13,1438.98L1181.28,1421.43L1214.13,1403.89Z" style="fill:none;stroke:white;stroke-width:0.73px;"/>
                </g>
                <g transform="matrix(1.67323,6.93889e-18,-1.38778e-17,1.16592,-352.152,13.6189)">
                    <path d="M1214.13,1403.89L1246.99,1421.43L1214.13,1438.98L1181.28,1421.43L1214.13,1403.89Z" style="fill:none;stroke:white;stroke-width:0.73px;"/>
                </g>
                <g transform="matrix(1.67323,6.93889e-18,-1.38778e-17,1.16592,-791.917,-150.025)">
                    <path d="M1214.13,1403.89L1246.99,1421.43L1214.13,1438.98L1181.28,1421.43L1214.13,1403.89Z" style="fill:none;stroke:white;stroke-width:0.73px;"/>
                </g>
                <g transform="matrix(1.67323,6.93889e-18,-1.38778e-17,1.16592,-736.946,-170.481)">
                    <path d="M1214.13,1403.89L1246.99,1421.43L1214.13,1438.98L1181.28,1421.43L1214.13,1403.89Z" style="fill:none;stroke:white;stroke-width:0.73px;"/>
                </g>
                <g transform="matrix(1.67323,6.93889e-18,-1.38778e-17,1.16592,-681.975,-190.936)">
                    <path d="M1214.13,1403.89L1246.99,1421.43L1214.13,1438.98L1181.28,1421.43L1214.13,1403.89Z" style="fill:none;stroke:white;stroke-width:0.73px;"/>
                </g>
                <g transform="matrix(1.67323,6.93889e-18,-1.38778e-17,1.16592,-627.005,-211.392)">
                    <path d="M1214.13,1403.89L1246.99,1421.43L1214.13,1438.98L1181.28,1421.43L1214.13,1403.89Z" style="fill:none;stroke:white;stroke-width:0.73px;"/>
                </g>
                <g transform="matrix(1.67323,6.93889e-18,-1.38778e-17,1.16592,-572.034,-231.847)">
                    <path d="M1214.13,1403.89L1246.99,1421.43L1214.13,1438.98L1181.28,1421.43L1214.13,1403.89Z" style="fill:none;stroke:white;stroke-width:0.73px;"/>
                </g>
                <g transform="matrix(1.67323,6.93889e-18,-1.38778e-17,1.16592,-517.064,-252.303)">
                    <path d="M1214.13,1403.89L1246.99,1421.43L1214.13,1438.98L1181.28,1421.43L1214.13,1403.89Z" style="fill:none;stroke:white;stroke-width:0.73px;"/>
                </g>
                <g transform="matrix(1.67323,6.93889e-18,-1.38778e-17,1.16592,-462.093,-272.758)">
                    <path d="M1214.13,1403.89L1246.99,1421.43L1214.13,1438.98L1181.28,1421.43L1214.13,1403.89Z" style="fill:none;stroke:white;stroke-width:0.73px;"/>
                </g>
                <g transform="matrix(1.67323,6.93889e-18,-1.38778e-17,1.16592,-407.122,-293.214)">
                    <path d="M1214.13,1403.89L1246.99,1421.43L1214.13,1438.98L1181.28,1421.43L1214.13,1403.89Z" style="fill:none;stroke:white;stroke-width:0.73px;"/>
                </g>
                <g transform="matrix(1.67323,6.93889e-18,-1.38778e-17,1.16592,-352.152,-272.758)">
                    <path d="M1214.13,1403.89L1246.99,1421.43L1214.13,1438.98L1181.28,1421.43L1214.13,1403.89Z" style="fill:none;stroke:white;stroke-width:0.73px;"/>
                </g>
                <g transform="matrix(1.67323,6.93889e-18,-1.38778e-17,1.16592,-297.181,-252.303)">
                    <path d="M1214.13,1403.89L1246.99,1421.43L1214.13,1438.98L1181.28,1421.43L1214.13,1403.89Z" style="fill:none;stroke:white;stroke-width:0.73px;"/>
                </g>
            </g>
            <path d="M1389.55,1258.26C1384.2,1248.3 1380.88,1238.29 1379.25,1227.1C1378.25,1220.2 1377.99,1209.8 1371.8,1205.21C1358.3,1195.19 1342.97,1208.38 1337.9,1220.96C1330.28,1239.87 1337.45,1263.34 1346.16,1280.66C1356.39,1301 1375.83,1320.27 1399.17,1323.38C1417.37,1325.81 1443.62,1314.43 1441.22,1292.08C1440.27,1283.27 1429.31,1280.54 1422.19,1279.08C1408.42,1276.26 1395.83,1272.41 1389.55,1258.26Z" style="fill:none;stroke:black;stroke-width:12.25px;"/>
            <path d="M1345.74,1281.63C1357.13,1297.24 1370.01,1312.14 1388.56,1319.06C1406.64,1325.8 1433.85,1313.89 1434.92,1341.43C1435.35,1352.58 1433.37,1366.42 1427.87,1375.65C1418.8,1390.9 1412.02,1406.51 1401.59,1420.92C1346.38,1497.2 1251.77,1541.67 1157.11,1545.57C1123.43,1546.95 1086.27,1545.63 1054.87,1532.16C1050.23,1530.17 1028.39,1518.47 1027.3,1513.62C1027.04,1512.49 1033.38,1508.44 1034.39,1507.76C1042.57,1502.22 1051.04,1497.75 1058.45,1491.11C1076.96,1474.53 1090.81,1453.09 1099.45,1429.9C1110.67,1399.79 1112.47,1367.05 1123.56,1336.78C1146.15,1275.17 1201.8,1218.48 1268.05,1207.59C1286.45,1204.57 1319.52,1204.42 1335.63,1216.1C1337.38,1217.37 1336.83,1223.56 1336.89,1225.5C1337.19,1235.28 1334.13,1244.35 1333.84,1254.03C1333.36,1270.42 1345.39,1284.17 1356.32,1295.08" style="stroke:black;stroke-width:7.88px;"/>
            <path d="M1035.11,1444.03C1011.9,1417.53 990.826,1378.94 994.686,1342.33C998.785,1303.45 1033.79,1301.86 1044.13,1337.34C1055.52,1376.4 1018.13,1405.18 1035.11,1444.03Z"/>
            <path d="M1030.93,1442.61C1029.81,1441.8 1028.71,1440.94 1027.68,1439.92C1026.87,1439.12 1026.24,1438.15 1025.53,1437.25C1016.41,1425.68 1008.06,1412.37 1001.85,1398.26C993.905,1380.22 989.53,1360.85 991.509,1342C993.573,1320.61 1004.73,1309.68 1016.3,1308.45C1028.26,1307.19 1041.69,1316.2 1047.58,1336.34C1052.3,1352.64 1049.05,1367.23 1044.39,1381.44C1039.9,1395.11 1034.06,1408.39 1034,1422.74C1033.98,1427.94 1034.83,1433.26 1036.65,1438.86C1036.98,1439.89 1037.46,1440.89 1037.71,1441.99C1037.78,1442.29 1037.75,1442.56 1037.78,1442.86L1036.3,1442.86C1036.56,1444.18 1036.35,1445.72 1035.81,1446.49C1035.26,1447.26 1034.55,1447.03 1034.12,1445.95L1034.12,1444.89L1033.63,1444.53L1032.44,1445.2C1032.21,1444.94 1031.99,1444.74 1031.81,1444.46C1031.44,1443.88 1031.17,1443.25 1030.93,1442.61ZM1027.66,1429.89C1027.36,1427.48 1027.22,1425.09 1027.22,1422.73C1027.18,1407.67 1033.09,1393.65 1037.73,1379.28C1041.9,1366.36 1045.03,1353.12 1040.69,1338.34C1036.09,1322.54 1026.41,1314.62 1017.02,1315.52C1007.79,1316.41 999.807,1325.67 997.862,1342.67C996.351,1356.93 998.779,1371.49 1003.63,1385.49C1009.17,1401.45 1017.9,1416.65 1027.66,1429.89Z"/>
            <path d="M1006.41,1396.46C1005.92,1396.19 1005.43,1395.85 1004.93,1395.28C1003.28,1393.41 1002.6,1390.52 1001.76,1387.91C1000.69,1384.55 999.952,1381.05 1000.56,1378.06C1000.75,1377.1 1001.05,1376.24 1001.49,1375.42C1002.15,1374.32 1002.65,1373.25 1003.98,1373.52C1004.3,1373.58 1004.88,1373.38 1005.4,1373.86C1005.49,1373.94 1005.79,1373.99 1006.02,1374.34C1006.09,1374.44 1006.22,1374.66 1006.43,1374.95C1007.35,1376.22 1009.99,1379.09 1010.21,1379.46C1011.67,1381.92 1012.64,1384.49 1013.15,1387.16C1013.65,1389.76 1013.69,1392.46 1013.45,1395.22C1013.37,1395.9 1013.24,1398.54 1012.88,1399.62C1012.59,1400.47 1012.15,1401.02 1011.76,1401.31C1011.92,1401.74 1011.32,1401.07 1011.4,1401.53C1011.44,1401.7 1011.24,1401.42 1011.26,1401.6C1011.29,1401.83 1011.06,1401.44 1011.07,1401.68C1011.09,1402.13 1010.72,1401.31 1010.67,1401.79C1010.6,1402.38 1010.33,1401.18 1010.1,1401.83C1009.97,1402.2 1009.93,1401.39 1009.72,1401.8C1009.53,1402.15 1009.63,1401.3 1009.34,1401.7C1009.23,1401.84 1009.31,1401.49 1009.18,1401.64C1008.97,1401.88 1009.19,1401.22 1008.88,1401.5C1008.75,1401.62 1008.9,1401.29 1008.73,1401.42C1008.51,1401.59 1008.84,1401.06 1008.46,1401.25C1008.23,1401.37 1008.45,1401.37 1007.78,1401.1C1007.25,1400.88 1006.81,1399.41 1006.73,1399.27C1006.08,1398.45 1005.99,1397.35 1006.41,1396.46Z" style="fill:white;"/>
            <path d="M1293.45,1238.69C1287.03,1239.98 1280.84,1241.67 1274.79,1243.55C1249.44,1251.44 1227.13,1264.21 1207.94,1281.22C1184.41,1302.09 1165.5,1328.83 1149.74,1357.51C1149.08,1358.7 1149.51,1360.19 1150.69,1360.84C1151.88,1361.49 1153.37,1361.06 1154.02,1359.88C1169.61,1331.75 1188.58,1305.9 1211.44,1285.11C1229.98,1268.25 1251,1254.37 1275.71,1246.44C1281.62,1244.55 1287.76,1243.07 1294.07,1241.87C1294.95,1241.7 1295.53,1240.85 1295.36,1239.97C1295.18,1239.09 1294.33,1238.52 1293.45,1238.69Z" style="fill:white;"/>
            <path d="M1335.44,1294.62C1332.48,1298.93 1329.35,1303.11 1326.26,1307.33C1324.94,1309.13 1323.66,1310.96 1322.34,1312.76C1304.76,1336.66 1284.21,1358.52 1261.95,1378.61C1248.1,1391.12 1233.56,1402.92 1218.71,1414.15C1203.69,1425.51 1188.36,1436.32 1172.93,1446.49C1172.08,1447.05 1171.84,1448.2 1172.39,1449.05C1172.95,1449.91 1174.1,1450.15 1174.95,1449.59C1190.56,1439.53 1206.14,1428.92 1221.28,1417.57C1236.29,1406.33 1250.87,1394.37 1264.78,1381.73C1287.18,1361.39 1307.8,1339.22 1325.39,1314.99C1326.72,1313.16 1328.05,1311.34 1329.32,1309.47C1332.26,1305.09 1334.97,1300.57 1337.64,1296.03C1338.03,1295.42 1337.85,1294.61 1337.24,1294.22C1336.63,1293.84 1335.83,1294.01 1335.44,1294.62Z" style="fill:white;"/>
            <path d="M1242.74,1492.99C1255.11,1488.02 1267.09,1482.5 1278.51,1476.15C1295.97,1466.43 1312.15,1454.95 1327.13,1442.14C1342.13,1429.31 1355.95,1415.08 1368.12,1399.22C1376.06,1388.86 1383.23,1377.78 1389.82,1366.14C1390.21,1365.46 1389.99,1364.59 1389.31,1364.19C1388.63,1363.79 1387.76,1364.02 1387.36,1364.7C1380.49,1375.99 1372.91,1386.6 1364.89,1396.7C1352.64,1412.15 1339.23,1426.34 1324.44,1439C1309.67,1451.66 1293.58,1462.75 1276.52,1472.66C1265.34,1479.16 1253.79,1485.23 1241.72,1490.59C1241.06,1490.87 1240.75,1491.63 1241.03,1492.3C1241.31,1492.96 1242.08,1493.27 1242.74,1492.99Z" style="fill:white;"/>
        </g>
        <g id="Layer3">
            <path d="M1710.5,1745.2L2285.49,1527.71" style="fill:none;stroke:black;stroke-width:5.05px;"/>
        </g>
    </g>
    <defs>
        <linearGradient id="_Linear1" x1="0" y1="0" x2="1" y2="0" gradientUnits="userSpaceOnUse" gradientTransform="matrix(886.251,-3.82066,3.68301,919.375,840.97,1707.32)"><stop offset="0" style="stop-color:rgb(153,0,26);stop-opacity:1"/><stop offset="0.5" style="stop-color:rgb(159,0,204);stop-opacity:1"/><stop offset="1" style="stop-color:rgb(8,0,255);stop-opacity:1"/></linearGradient>
    </defs>
</svg>
