<?xml version="1.0" encoding="UTF-8" standalone="no"?>
<!DOCTYPE svg PUBLIC "-//W3C//DTD SVG 1.1//EN" "http://www.w3.org/Graphics/SVG/1.1/DTD/svg11.dtd">
<svg width="100%" height="100%" viewBox="0 0 2452 542" version="1.1" xmlns="http://www.w3.org/2000/svg" xmlns:xlink="http://www.w3.org/1999/xlink" xml:space="preserve" xmlns:serif="http://www.serif.com/" style="fill-rule:evenodd;clip-rule:evenodd;stroke-linecap:round;stroke-linejoin:round;stroke-miterlimit:1.5;">
    <g transform="matrix(1,0,0,1,-277.519,-742.249)">
        <g transform="matrix(1.03695,0,0,0.120032,-50.5319,1006.29)">
            <rect x="316.361" y="1369.97" width="2351.09" height="364.051" style="fill:url(#_Linear1);"/>
        </g>
        <g transform="matrix(0.367702,0,0,0.367702,1501.73,639.605)">
            <g id="Layer2">
                <g transform="matrix(9.4433,9.58402,-0.94654,0.932642,-10584.4,-12785.9)">
                    <rect x="1314.58" y="610.68" width="95.703" height="101.322" style="stroke:black;stroke-width:0.63px;"/>
                </g>
                <g transform="matrix(2.80043,-2.80043,0.707107,0.707107,-2848.67,4044.28)">
                    <ellipse cx="1368.77" cy="307.581" rx="16.999" ry="35.906" style="stroke:white;stroke-width:2.35px;"/>
                </g>
                <g transform="matrix(2.8147,-2.8147,0.707107,0.707107,-2758.98,4174.19)">
                    <ellipse cx="1368.77" cy="307.581" rx="16.999" ry="35.906" style="stroke:white;stroke-width:2.34px;"/>
                </g>
                <g transform="matrix(0.853342,-0.853342,0.707107,0.707107,-201.05,1421.36)">
                    <rect x="1347.18" y="382.56" width="111.998" height="65.693" style="stroke:black;stroke-width:3.22px;"/>
                </g>
                <g transform="matrix(-0.523309,0.516229,-1.02202,-1.03604,4964.43,1881.93)">
                    <path d="M2256.07,1466.03L2347.65,1640.45L2164.49,1640.45L2256.07,1466.03Z" style="stroke:black;stroke-width:5.9px;"/>
                </g>
                <path d="M2280.01,1522.07C2270.61,1515.96 2258.41,1510.42 2248.83,1504.59C2247.19,1503.59 2240.82,1499.93 2240.26,1498.29C2240,1497.53 2244.53,1497.05 2245,1496.85C2246.65,1496.14 2248.52,1494.15 2248.76,1492.64C2249.77,1486.25 2245.75,1482.9 2243.75,1477.53C2243.58,1477.06 2244.6,1478.03 2245.01,1478.3C2245.8,1478.82 2246.57,1479.37 2247.33,1479.94C2249.6,1481.65 2251.79,1483.91 2254.25,1485.34C2255.03,1485.79 2254.23,1483.54 2254.14,1482.65C2253.87,1479.99 2252.39,1477.46 2252.15,1474.92C2252.08,1474.26 2253.61,1475.49 2254.07,1475.96C2255.04,1476.95 2255.66,1478.08 2256.5,1479.18C2259.08,1482.52 2260.74,1486.42 2262.59,1490.19C2267.97,1501.15 2274.23,1511.37 2280.01,1522.07Z" style="stroke:white;stroke-width:6.29px;"/>
                <g transform="matrix(1.295,0,0,1.31921,-409.114,-203.632)">
                    <path d="M1340.67,588.715C1340.67,588.715 1941.39,1181.79 1937.97,1180.44" style="fill:none;stroke:white;stroke-width:5.12px;"/>
                </g>
                <g transform="matrix(1.29352,0,0,1.31159,-376.465,-236.549)">
                    <path d="M1340.67,588.715C1340.67,588.715 1941.39,1181.79 1937.97,1180.44" style="fill:none;stroke:white;stroke-width:5.14px;"/>
                </g>
                <g transform="matrix(1.30611,0,0,1.33894,-475.959,-195.718)">
                    <path d="M1340.67,588.715C1340.67,588.715 1941.39,1181.79 1937.97,1180.44" style="fill:none;stroke:white;stroke-width:5.06px;"/>
                </g>
            </g>
            <g id="Layer1">
                <path d="M1380.26,1227.61C1378.91,1167.44 1442.77,1085.59 1490.15,1021.59C1591.15,885.187 1708.93,764.48 1822.25,638.678C1887.58,566.153 1957.83,503.224 2033.46,441.83C2049.97,428.425 2066.63,414.661 2084.66,403.303C2086.58,402.097 2101.15,397.277 2107.44,400.071C2115.71,403.744 2115.51,415.81 2115.87,424.212C2116.76,444.94 2104.5,466.482 2096.87,484.871C2073.5,541.274 2031.57,603.877 1996.2,653.252C1968.24,692.284 1951.18,715.757 1923.32,754.881C1901.02,786.196 1872.27,821.815 1848.05,851.737C1768.25,950.338 1680.59,1042.1 1599.49,1139.58C1588.35,1152.97 1576.83,1165.99 1565,1178.77C1526.79,1220.08 1401.07,1353.13 1380.26,1227.61Z" style="stroke:black;stroke-width:33.32px;"/>
                <path d="M1413.37,1273.15C1411.85,1275.95 1413.59,1270.12 1414.95,1275.41C1412.29,1276.72 1411.18,1279.94 1412.49,1282.61C1413.8,1285.28 1417.02,1286.38 1419.69,1285.07C1423.04,1289.4 1417.75,1286.15 1420.67,1287.38L1421.96,1287.96C1422.24,1288.1 1422.51,1288.02 1422.81,1287.93C1424.79,1287.37 1426.29,1285.77 1428.08,1284.75C1447.73,1273.6 1466.95,1261.14 1484.8,1246.53C1514.21,1222.46 1540.97,1194.63 1566.15,1169.83C1582.52,1153.43 1596.9,1138.42 1610.84,1123.44C1631.66,1101.07 1651.46,1078.79 1675.38,1052.09C1720.45,1001.72 1792.72,918.078 1858.29,838.79C1904.25,783.212 1946.87,729.725 1975.03,691.638C1999.42,657.912 2021.52,630.842 2039.58,603.871C2048.66,590.309 2056.27,576.635 2063.87,562.908C2070.02,551.801 2075.64,540.511 2081.44,528.904C2093.62,504.527 2106.22,478.725 2116.14,447.093C2118.58,439.324 2121.34,431.333 2122.84,422.716C2123.21,420.584 2123.24,418.52 2123.44,416.324C2124.78,411.796 2122.19,407.033 2117.66,405.693C2113.13,404.353 2108.37,406.941 2107.03,411.469C2106.28,412.597 2105.47,413.476 2104.87,414.674C2099.68,425.045 2096.95,435.808 2093.16,445.637C2081.8,475.118 2071.36,500.524 2057.7,522.931C2044.88,543.94 2029.16,561.641 2013.79,581.493C1993.42,607.804 1972.18,636.489 1946.75,670.991C1913.42,717.311 1858.97,786.237 1803.74,854.546C1748.38,922.994 1692.25,990.816 1654.97,1034.18C1631.73,1061.24 1612.49,1083.82 1592.25,1106.5C1578.81,1121.56 1564.92,1136.66 1549.12,1153.17C1525.31,1178.46 1500.22,1206.95 1472.11,1231.53C1455.75,1245.83 1438.5,1258.99 1419.72,1269.01C1417.84,1270.02 1414.9,1269.94 1414.01,1271.87C1413.75,1272.42 1413.55,1272.84 1413.37,1273.15Z" style="fill:white;"/>
                <g transform="matrix(1.28347,0,0,1.23723,68.6514,-579.907)">
                    <path d="M1279.23,1527.71L1727.22,1703.5L1279.23,1879.29L831.233,1703.5L1279.23,1527.71Z" style="fill:url(#_Linear2);"/>
                </g>
                <g id="Layer4">
                    <g transform="matrix(1.67323,6.93889e-18,-1.38778e-17,1.16592,-846.887,-129.57)">
                        <path d="M1214.13,1403.89L1246.99,1421.43L1214.13,1438.98L1181.28,1421.43L1214.13,1403.89Z" style="fill:none;stroke:white;stroke-width:1.98px;"/>
                    </g>
                    <g transform="matrix(1.67323,6.93889e-18,-1.38778e-17,1.16592,-791.917,-109.114)">
                        <path d="M1214.13,1403.89L1246.99,1421.43L1214.13,1438.98L1181.28,1421.43L1214.13,1403.89Z" style="fill:none;stroke:white;stroke-width:1.98px;"/>
                    </g>
                    <g transform="matrix(1.67323,6.93889e-18,-1.38778e-17,1.16592,-736.946,-129.57)">
                        <path d="M1214.13,1403.89L1246.99,1421.43L1214.13,1438.98L1181.28,1421.43L1214.13,1403.89Z" style="fill:none;stroke:white;stroke-width:1.98px;"/>
                    </g>
                    <g transform="matrix(1.67323,6.93889e-18,-1.38778e-17,1.16592,-681.975,-150.025)">
                        <path d="M1214.13,1403.89L1246.99,1421.43L1214.13,1438.98L1181.28,1421.43L1214.13,1403.89Z" style="fill:none;stroke:white;stroke-width:1.98px;"/>
                    </g>
                    <g transform="matrix(1.67323,6.93889e-18,-1.38778e-17,1.16592,-627.005,-170.481)">
                        <path d="M1214.13,1403.89L1246.99,1421.43L1214.13,1438.98L1181.28,1421.43L1214.13,1403.89Z" style="fill:none;stroke:white;stroke-width:1.98px;"/>
                    </g>
                    <g transform="matrix(1.67323,6.93889e-18,-1.38778e-17,1.16592,-572.034,-190.936)">
                        <path d="M1214.13,1403.89L1246.99,1421.43L1214.13,1438.98L1181.28,1421.43L1214.13,1403.89Z" style="fill:none;stroke:white;stroke-width:1.98px;"/>
                    </g>
                    <g transform="matrix(1.67323,6.93889e-18,-1.38778e-17,1.16592,-517.064,-211.392)">
                        <path d="M1214.13,1403.89L1246.99,1421.43L1214.13,1438.98L1181.28,1421.43L1214.13,1403.89Z" style="fill:none;stroke:white;stroke-width:1.98px;"/>
                    </g>
                    <g transform="matrix(1.67323,6.93889e-18,-1.38778e-17,1.16592,-462.093,-231.847)">
                        <path d="M1214.13,1403.89L1246.99,1421.43L1214.13,1438.98L1181.28,1421.43L1214.13,1403.89Z" style="fill:none;stroke:white;stroke-width:1.98px;"/>
                    </g>
                    <g transform="matrix(1.67323,6.93889e-18,-1.38778e-17,1.16592,-407.122,-252.303)">
                        <path d="M1214.13,1403.89L1246.99,1421.43L1214.13,1438.98L1181.28,1421.43L1214.13,1403.89Z" style="fill:none;stroke:white;stroke-width:1.98px;"/>
                    </g>
                    <g transform="matrix(1.67323,6.93889e-18,-1.38778e-17,1.16592,-736.946,-88.6587)">
                        <path d="M1214.13,1403.89L1246.99,1421.43L1214.13,1438.98L1181.28,1421.43L1214.13,1403.89Z" style="fill:none;stroke:white;stroke-width:1.98px;"/>
                    </g>
                    <g transform="matrix(1.67323,6.93889e-18,-1.38778e-17,1.16592,-681.975,-109.114)">
                        <path d="M1214.13,1403.89L1246.99,1421.43L1214.13,1438.98L1181.28,1421.43L1214.13,1403.89Z" style="fill:none;stroke:white;stroke-width:1.98px;"/>
                    </g>
                    <g transform="matrix(1.67323,6.93889e-18,-1.38778e-17,1.16592,-627.005,-129.57)">
                        <path d="M1214.13,1403.89L1246.99,1421.43L1214.13,1438.98L1181.28,1421.43L1214.13,1403.89Z" style="fill:none;stroke:white;stroke-width:1.98px;"/>
                    </g>
                    <g transform="matrix(1.67323,6.93889e-18,-1.38778e-17,1.16592,-572.034,-150.025)">
                        <path d="M1214.13,1403.89L1246.99,1421.43L1214.13,1438.98L1181.28,1421.43L1214.13,1403.89Z" style="fill:none;stroke:white;stroke-width:1.98px;"/>
                    </g>
                    <g transform="matrix(1.67323,6.93889e-18,-1.38778e-17,1.16592,-517.064,-170.481)">
                        <path d="M1214.13,1403.89L1246.99,1421.43L1214.13,1438.98L1181.28,1421.43L1214.13,1403.89Z" style="fill:none;stroke:white;stroke-width:1.98px;"/>
                    </g>
                    <g transform="matrix(1.67323,6.93889e-18,-1.38778e-17,1.16592,-462.093,-190.936)">
                        <path d="M1214.13,1403.89L1246.99,1421.43L1214.13,1438.98L1181.28,1421.43L1214.13,1403.89Z" style="fill:none;stroke:white;stroke-width:1.98px;"/>
                    </g>
                    <g transform="matrix(1.67323,6.93889e-18,-1.38778e-17,1.16592,-407.122,-211.392)">
                        <path d="M1214.13,1403.89L1246.99,1421.43L1214.13,1438.98L1181.28,1421.43L1214.13,1403.89Z" style="fill:none;stroke:white;stroke-width:1.98px;"/>
                    </g>
                    <g transform="matrix(1.67323,6.93889e-18,-1.38778e-17,1.16592,-352.152,-231.847)">
                        <path d="M1214.13,1403.89L1246.99,1421.43L1214.13,1438.98L1181.28,1421.43L1214.13,1403.89Z" style="fill:none;stroke:white;stroke-width:1.98px;"/>
                    </g>
                    <g transform="matrix(1.67323,6.93889e-18,-1.38778e-17,1.16592,-352.152,-190.936)">
                        <path d="M1214.13,1403.89L1246.99,1421.43L1214.13,1438.98L1181.28,1421.43L1214.13,1403.89Z" style="fill:none;stroke:white;stroke-width:1.98px;"/>
                    </g>
                    <g transform="matrix(1.67323,6.93889e-18,-1.38778e-17,1.16592,-407.122,-170.481)">
                        <path d="M1214.13,1403.89L1246.99,1421.43L1214.13,1438.98L1181.28,1421.43L1214.13,1403.89Z" style="fill:none;stroke:white;stroke-width:1.98px;"/>
                    </g>
                    <g transform="matrix(1.67323,6.93889e-18,-1.38778e-17,1.16592,-462.093,-150.025)">
                        <path d="M1214.13,1403.89L1246.99,1421.43L1214.13,1438.98L1181.28,1421.43L1214.13,1403.89Z" style="fill:none;stroke:white;stroke-width:1.98px;"/>
                    </g>
                    <g transform="matrix(1.67323,6.93889e-18,-1.38778e-17,1.16592,-517.064,-129.57)">
                        <path d="M1214.13,1403.89L1246.99,1421.43L1214.13,1438.98L1181.28,1421.43L1214.13,1403.89Z" style="fill:none;stroke:white;stroke-width:1.98px;"/>
                    </g>
                    <g transform="matrix(1.67323,6.93889e-18,-1.38778e-17,1.16592,-572.034,-109.114)">
                        <path d="M1214.13,1403.89L1246.99,1421.43L1214.13,1438.98L1181.28,1421.43L1214.13,1403.89Z" style="fill:none;stroke:white;stroke-width:1.98px;"/>
                    </g>
                    <g transform="matrix(1.67323,6.93889e-18,-1.38778e-17,1.16592,-627.005,-88.6587)">
                        <path d="M1214.13,1403.89L1246.99,1421.43L1214.13,1438.98L1181.28,1421.43L1214.13,1403.89Z" style="fill:none;stroke:white;stroke-width:1.98px;"/>
                    </g>
                    <g transform="matrix(1.67323,6.93889e-18,-1.38778e-17,1.16592,-681.975,-68.2031)">
                        <path d="M1214.13,1403.89L1246.99,1421.43L1214.13,1438.98L1181.28,1421.43L1214.13,1403.89Z" style="fill:none;stroke:white;stroke-width:1.98px;"/>
                    </g>
                    <g transform="matrix(1.67323,6.93889e-18,-1.38778e-17,1.16592,-627.005,-47.7476)">
                        <path d="M1214.13,1403.89L1246.99,1421.43L1214.13,1438.98L1181.28,1421.43L1214.13,1403.89Z" style="fill:none;stroke:white;stroke-width:1.98px;"/>
                    </g>
                    <g transform="matrix(1.67323,6.93889e-18,-1.38778e-17,1.16592,-572.034,-68.2031)">
                        <path d="M1214.13,1403.89L1246.99,1421.43L1214.13,1438.98L1181.28,1421.43L1214.13,1403.89Z" style="fill:none;stroke:white;stroke-width:1.98px;"/>
                    </g>
                    <g transform="matrix(1.67323,6.93889e-18,-1.38778e-17,1.16592,-517.064,-88.6587)">
                        <path d="M1214.13,1403.89L1246.99,1421.43L1214.13,1438.98L1181.28,1421.43L1214.13,1403.89Z" style="fill:none;stroke:white;stroke-width:1.98px;"/>
                    </g>
                    <g transform="matrix(1.67323,6.93889e-18,-1.38778e-17,1.16592,-462.093,-109.114)">
                        <path d="M1214.13,1403.89L1246.99,1421.43L1214.13,1438.98L1181.28,1421.43L1214.13,1403.89Z" style="fill:none;stroke:white;stroke-width:1.98px;"/>
                    </g>
                    <g transform="matrix(1.67323,6.93889e-18,-1.38778e-17,1.16592,-407.122,-129.57)">
                        <path d="M1214.13,1403.89L1246.99,1421.43L1214.13,1438.98L1181.28,1421.43L1214.13,1403.89Z" style="fill:none;stroke:white;stroke-width:1.98px;"/>
                    </g>
                    <g transform="matrix(1.67323,6.93889e-18,-1.38778e-17,1.16592,-352.152,-150.025)">
                        <path d="M1214.13,1403.89L1246.99,1421.43L1214.13,1438.98L1181.28,1421.43L1214.13,1403.89Z" style="fill:none;stroke:white;stroke-width:1.98px;"/>
                    </g>
                    <g transform="matrix(1.67323,6.93889e-18,-1.38778e-17,1.16592,-297.181,-170.481)">
                        <path d="M1214.13,1403.89L1246.99,1421.43L1214.13,1438.98L1181.28,1421.43L1214.13,1403.89Z" style="fill:none;stroke:white;stroke-width:1.98px;"/>
                    </g>
                    <g transform="matrix(1.67323,6.93889e-18,-1.38778e-17,1.16592,-297.181,-211.392)">
                        <path d="M1214.13,1403.89L1246.99,1421.43L1214.13,1438.98L1181.28,1421.43L1214.13,1403.89Z" style="fill:none;stroke:white;stroke-width:1.98px;"/>
                    </g>
                    <g transform="matrix(1.67323,6.93889e-18,-1.38778e-17,1.16592,-242.21,-190.936)">
                        <path d="M1214.13,1403.89L1246.99,1421.43L1214.13,1438.98L1181.28,1421.43L1214.13,1403.89Z" style="fill:none;stroke:white;stroke-width:1.98px;"/>
                    </g>
                    <g transform="matrix(1.67323,6.93889e-18,-1.38778e-17,1.16592,-242.21,-150.025)">
                        <path d="M1214.13,1403.89L1246.99,1421.43L1214.13,1438.98L1181.28,1421.43L1214.13,1403.89Z" style="fill:none;stroke:white;stroke-width:1.98px;"/>
                    </g>
                    <g transform="matrix(1.67323,6.93889e-18,-1.38778e-17,1.16592,-297.181,-129.57)">
                        <path d="M1214.13,1403.89L1246.99,1421.43L1214.13,1438.98L1181.28,1421.43L1214.13,1403.89Z" style="fill:none;stroke:white;stroke-width:1.98px;"/>
                    </g>
                    <g transform="matrix(1.67323,6.93889e-18,-1.38778e-17,1.16592,-352.152,-109.114)">
                        <path d="M1214.13,1403.89L1246.99,1421.43L1214.13,1438.98L1181.28,1421.43L1214.13,1403.89Z" style="fill:none;stroke:white;stroke-width:1.98px;"/>
                    </g>
                    <g transform="matrix(1.67323,6.93889e-18,-1.38778e-17,1.16592,-407.122,-88.6587)">
                        <path d="M1214.13,1403.89L1246.99,1421.43L1214.13,1438.98L1181.28,1421.43L1214.13,1403.89Z" style="fill:none;stroke:white;stroke-width:1.98px;"/>
                    </g>
                    <g transform="matrix(1.67323,6.93889e-18,-1.38778e-17,1.16592,-462.093,-68.2031)">
                        <path d="M1214.13,1403.89L1246.99,1421.43L1214.13,1438.98L1181.28,1421.43L1214.13,1403.89Z" style="fill:none;stroke:white;stroke-width:1.98px;"/>
                    </g>
                    <g transform="matrix(1.67323,6.93889e-18,-1.38778e-17,1.16592,-517.064,-47.7476)">
                        <path d="M1214.13,1403.89L1246.99,1421.43L1214.13,1438.98L1181.28,1421.43L1214.13,1403.89Z" style="fill:none;stroke:white;stroke-width:1.98px;"/>
                    </g>
                    <g transform="matrix(1.67323,6.93889e-18,-1.38778e-17,1.16592,-572.034,-27.2921)">
                        <path d="M1214.13,1403.89L1246.99,1421.43L1214.13,1438.98L1181.28,1421.43L1214.13,1403.89Z" style="fill:none;stroke:white;stroke-width:1.98px;"/>
                    </g>
                    <g transform="matrix(1.67323,6.93889e-18,-1.38778e-17,1.16592,-517.064,-6.83658)">
                        <path d="M1214.13,1403.89L1246.99,1421.43L1214.13,1438.98L1181.28,1421.43L1214.13,1403.89Z" style="fill:none;stroke:white;stroke-width:1.98px;"/>
                    </g>
                    <g transform="matrix(1.67323,6.93889e-18,-1.38778e-17,1.16592,-462.093,-27.2921)">
                        <path d="M1214.13,1403.89L1246.99,1421.43L1214.13,1438.98L1181.28,1421.43L1214.13,1403.89Z" style="fill:none;stroke:white;stroke-width:1.98px;"/>
                    </g>
                    <g transform="matrix(1.67323,6.93889e-18,-1.38778e-17,1.16592,-407.122,-47.7476)">
                        <path d="M1214.13,1403.89L1246.99,1421.43L1214.13,1438.98L1181.28,1421.43L1214.13,1403.89Z" style="fill:none;stroke:white;stroke-width:1.98px;"/>
                    </g>
                    <g transform="matrix(1.67323,6.93889e-18,-1.38778e-17,1.16592,-352.152,-68.2031)">
                        <path d="M1214.13,1403.89L1246.99,1421.43L1214.13,1438.98L1181.28,1421.43L1214.13,1403.89Z" style="fill:none;stroke:white;stroke-width:1.98px;"/>
                    </g>
                    <g transform="matrix(1.67323,6.93889e-18,-1.38778e-17,1.16592,-297.181,-88.6587)">
                        <path d="M1214.13,1403.89L1246.99,1421.43L1214.13,1438.98L1181.28,1421.43L1214.13,1403.89Z" style="fill:none;stroke:white;stroke-width:1.98px;"/>
                    </g>
                    <g transform="matrix(1.67323,6.93889e-18,-1.38778e-17,1.16592,-242.21,-109.114)">
                        <path d="M1214.13,1403.89L1246.99,1421.43L1214.13,1438.98L1181.28,1421.43L1214.13,1403.89Z" style="fill:none;stroke:white;stroke-width:1.98px;"/>
                    </g>
                    <g transform="matrix(1.67323,6.93889e-18,-1.38778e-17,1.16592,-462.093,13.6189)">
                        <path d="M1214.13,1403.89L1246.99,1421.43L1214.13,1438.98L1181.28,1421.43L1214.13,1403.89Z" style="fill:none;stroke:white;stroke-width:1.98px;"/>
                    </g>
                    <g transform="matrix(1.67323,6.93889e-18,-1.38778e-17,1.16592,-407.122,-6.83658)">
                        <path d="M1214.13,1403.89L1246.99,1421.43L1214.13,1438.98L1181.28,1421.43L1214.13,1403.89Z" style="fill:none;stroke:white;stroke-width:1.98px;"/>
                    </g>
                    <g transform="matrix(1.67323,6.93889e-18,-1.38778e-17,1.16592,-352.152,-27.2921)">
                        <path d="M1214.13,1403.89L1246.99,1421.43L1214.13,1438.98L1181.28,1421.43L1214.13,1403.89Z" style="fill:none;stroke:white;stroke-width:1.98px;"/>
                    </g>
                    <g transform="matrix(1.67323,6.93889e-18,-1.38778e-17,1.16592,-297.181,-47.7476)">
                        <path d="M1214.13,1403.89L1246.99,1421.43L1214.13,1438.98L1181.28,1421.43L1214.13,1403.89Z" style="fill:none;stroke:white;stroke-width:1.98px;"/>
                    </g>
                    <g transform="matrix(1.67323,6.93889e-18,-1.38778e-17,1.16592,-407.122,34.0745)">
                        <path d="M1214.13,1403.89L1246.99,1421.43L1214.13,1438.98L1181.28,1421.43L1214.13,1403.89Z" style="fill:none;stroke:white;stroke-width:1.98px;"/>
                    </g>
                    <g transform="matrix(1.67323,6.93889e-18,-1.38778e-17,1.16592,-352.152,13.6189)">
                        <path d="M1214.13,1403.89L1246.99,1421.43L1214.13,1438.98L1181.28,1421.43L1214.13,1403.89Z" style="fill:none;stroke:white;stroke-width:1.98px;"/>
                    </g>
                    <g transform="matrix(1.67323,6.93889e-18,-1.38778e-17,1.16592,-791.917,-150.025)">
                        <path d="M1214.13,1403.89L1246.99,1421.43L1214.13,1438.98L1181.28,1421.43L1214.13,1403.89Z" style="fill:none;stroke:white;stroke-width:1.98px;"/>
                    </g>
                    <g transform="matrix(1.67323,6.93889e-18,-1.38778e-17,1.16592,-736.946,-170.481)">
                        <path d="M1214.13,1403.89L1246.99,1421.43L1214.13,1438.98L1181.28,1421.43L1214.13,1403.89Z" style="fill:none;stroke:white;stroke-width:1.98px;"/>
                    </g>
                    <g transform="matrix(1.67323,6.93889e-18,-1.38778e-17,1.16592,-681.975,-190.936)">
                        <path d="M1214.13,1403.89L1246.99,1421.43L1214.13,1438.98L1181.28,1421.43L1214.13,1403.89Z" style="fill:none;stroke:white;stroke-width:1.98px;"/>
                    </g>
                    <g transform="matrix(1.67323,6.93889e-18,-1.38778e-17,1.16592,-627.005,-211.392)">
                        <path d="M1214.13,1403.89L1246.99,1421.43L1214.13,1438.98L1181.28,1421.43L1214.13,1403.89Z" style="fill:none;stroke:white;stroke-width:1.98px;"/>
                    </g>
                    <g transform="matrix(1.67323,6.93889e-18,-1.38778e-17,1.16592,-572.034,-231.847)">
                        <path d="M1214.13,1403.89L1246.99,1421.43L1214.13,1438.98L1181.28,1421.43L1214.13,1403.89Z" style="fill:none;stroke:white;stroke-width:1.98px;"/>
                    </g>
                    <g transform="matrix(1.67323,6.93889e-18,-1.38778e-17,1.16592,-517.064,-252.303)">
                        <path d="M1214.13,1403.89L1246.99,1421.43L1214.13,1438.98L1181.28,1421.43L1214.13,1403.89Z" style="fill:none;stroke:white;stroke-width:1.98px;"/>
                    </g>
                    <g transform="matrix(1.67323,6.93889e-18,-1.38778e-17,1.16592,-462.093,-272.758)">
                        <path d="M1214.13,1403.89L1246.99,1421.43L1214.13,1438.98L1181.28,1421.43L1214.13,1403.89Z" style="fill:none;stroke:white;stroke-width:1.98px;"/>
                    </g>
                    <g transform="matrix(1.67323,6.93889e-18,-1.38778e-17,1.16592,-407.122,-293.214)">
                        <path d="M1214.13,1403.89L1246.99,1421.43L1214.13,1438.98L1181.28,1421.43L1214.13,1403.89Z" style="fill:none;stroke:white;stroke-width:1.98px;"/>
                    </g>
                    <g transform="matrix(1.67323,6.93889e-18,-1.38778e-17,1.16592,-352.152,-272.758)">
                        <path d="M1214.13,1403.89L1246.99,1421.43L1214.13,1438.98L1181.28,1421.43L1214.13,1403.89Z" style="fill:none;stroke:white;stroke-width:1.98px;"/>
                    </g>
                    <g transform="matrix(1.67323,6.93889e-18,-1.38778e-17,1.16592,-297.181,-252.303)">
                        <path d="M1214.13,1403.89L1246.99,1421.43L1214.13,1438.98L1181.28,1421.43L1214.13,1403.89Z" style="fill:none;stroke:white;stroke-width:1.98px;"/>
                    </g>
                </g>
                <path d="M1389.55,1258.26C1384.2,1248.3 1380.88,1238.29 1379.25,1227.1C1378.25,1220.2 1377.99,1209.8 1371.8,1205.21C1358.3,1195.19 1342.97,1208.38 1337.9,1220.96C1330.28,1239.87 1337.45,1263.34 1346.16,1280.66C1356.39,1301 1375.83,1320.27 1399.17,1323.38C1417.37,1325.81 1443.62,1314.43 1441.22,1292.08C1440.27,1283.27 1429.31,1280.54 1422.19,1279.08C1408.42,1276.26 1395.83,1272.41 1389.55,1258.26Z" style="fill:none;stroke:black;stroke-width:33.32px;"/>
                <path d="M1345.74,1281.63C1357.13,1297.24 1370.01,1312.14 1388.56,1319.06C1406.64,1325.8 1433.85,1313.89 1434.92,1341.43C1435.35,1352.58 1433.37,1366.42 1427.87,1375.65C1418.8,1390.9 1412.02,1406.51 1401.59,1420.92C1346.38,1497.2 1251.77,1541.67 1157.11,1545.57C1123.43,1546.95 1086.27,1545.63 1054.87,1532.16C1050.23,1530.17 1028.39,1518.47 1027.3,1513.62C1027.04,1512.49 1033.38,1508.44 1034.39,1507.76C1042.57,1502.22 1051.04,1497.75 1058.45,1491.11C1076.96,1474.53 1090.81,1453.09 1099.45,1429.9C1110.67,1399.79 1112.47,1367.05 1123.56,1336.78C1146.15,1275.17 1201.8,1218.48 1268.05,1207.59C1286.45,1204.57 1319.52,1204.42 1335.63,1216.1C1337.38,1217.37 1336.83,1223.56 1336.89,1225.5C1337.19,1235.28 1334.13,1244.35 1333.84,1254.03C1333.36,1270.42 1345.39,1284.17 1356.32,1295.08" style="stroke:black;stroke-width:21.42px;"/>
                <path d="M1035.11,1444.03C1011.9,1417.53 990.826,1378.94 994.686,1342.33C998.785,1303.45 1033.79,1301.86 1044.13,1337.34C1055.52,1376.4 1018.13,1405.18 1035.11,1444.03Z"/>
                <path d="M1025.46,1444.28C1024.86,1444 1024.25,1443.65 1023.61,1443.2C1022.66,1442.53 1022.11,1441.41 1021.38,1440.49C1011.89,1428.66 1003.28,1414.96 996.851,1400.45C988.474,1381.54 983.984,1361.19 986.048,1341.42C988.089,1316.25 1002.1,1303.92 1015.69,1302.37C1029.85,1300.76 1046.48,1310.75 1053.49,1334.61C1056.04,1343.48 1056.47,1351.89 1055.6,1360.02C1053.97,1375.24 1047.49,1389.37 1043.16,1403.8C1040,1414.34 1038.58,1424.94 1042.05,1436.98C1042.32,1437.92 1042.8,1438.85 1042.78,1439.86C1042.78,1440.34 1042.52,1440.4 1042.37,1440.86L1038.36,1440.86C1039.07,1444.44 1038.49,1448.63 1037.01,1450.72C1035.53,1452.82 1033.59,1452.19 1032.43,1449.25L1032.43,1446.37C1031.71,1446.14 1031.03,1445.95 1030.38,1445.8L1027.84,1447.2C1027.33,1446.96 1027.14,1446.97 1026.74,1446.59C1026.09,1445.96 1025.75,1445.13 1025.46,1444.28ZM1022.19,1412.01C1016.83,1403.06 1012.17,1393.53 1008.78,1383.7C1004.22,1370.46 1001.88,1356.71 1003.32,1343.24C1005.05,1329.99 1010.42,1322.24 1017.63,1321.6C1024.83,1320.97 1031.27,1327.95 1034.77,1340.07C1038.78,1353.54 1035.77,1365.61 1032.01,1377.41C1028.33,1388.93 1023.96,1400.26 1022.19,1412.01Z"/>
                <path d="M1001.64,1398.59C1001.8,1399.85 1002.3,1401.07 1003.14,1402.13C1003.18,1402.33 1003.2,1404.23 1003.88,1404.53C1004.24,1404.68 1004.44,1404.79 1004.54,1404.86C1004.88,1405.11 1004.18,1404.93 1004.78,1404.51C1007,1402.97 1004.3,1405.83 1005.5,1404.72C1006.6,1403.69 1005.09,1405.8 1005.89,1404.94C1007.46,1403.29 1005.43,1406.63 1006.48,1405.29C1007.28,1404.27 1006.21,1406.41 1006.85,1405.48C1008.03,1403.77 1006.59,1407.26 1007.44,1405.75C1008.37,1404.11 1007.33,1407.44 1008.01,1405.95C1009.24,1403.27 1008.18,1408.56 1008.91,1406.17C1009.55,1404.09 1009.23,1408.19 1009.61,1406.26C1010.13,1403.65 1010.3,1408.68 1010.48,1406.28C1010.66,1403.85 1011.37,1408.46 1011.27,1406.19C1011.16,1403.43 1012.61,1408.56 1012.17,1405.99C1011.94,1404.69 1012.89,1407.11 1012.59,1405.85C1012.05,1403.58 1014.09,1407.68 1013.32,1405.54C1012.82,1404.18 1014.33,1406.62 1013.75,1405.31C1012.75,1403.06 1015.69,1406.94 1014.44,1404.84C1015.39,1404.18 1016.35,1402.87 1017.14,1400.9C1017.66,1399.6 1018.05,1396.42 1018.23,1395.6C1018.53,1392.41 1018.55,1389.28 1017.93,1386.28C1017.28,1383.11 1016.05,1380.07 1014.2,1377.21C1013.94,1376.78 1010.63,1373.61 1009.78,1372C1009.5,1371.46 1009.33,1371.23 1009.28,1371.02C1008.97,1369.8 1007.84,1370.1 1007.67,1369.78C1007.4,1369.26 1006.79,1369.59 1006.54,1369.26C1005.72,1368.17 1004.56,1369.31 1003.8,1368.85C1002.98,1368.34 1002.43,1369.46 1001.64,1369.26C999.54,1368.72 999.656,1371.53 997.714,1372.47C997.138,1372.75 997.586,1373.56 997.027,1374.02C995.952,1375.27 995.637,1376.6 995.133,1378.26C993.882,1382.39 995.407,1387.57 997.14,1392.17C997.864,1394.09 998.197,1396.46 999.747,1397.53C1000.57,1398.09 1001.16,1398.42 1001.64,1398.59ZM1015.84,1393.67C1016.7,1392.43 1016.03,1393.01 1015.41,1393.55C1015.55,1393.6 1015.7,1393.65 1015.84,1393.67ZM1015.09,1393.4C1016.4,1391.41 1015.44,1392.37 1014.55,1393.12L1014.75,1393.23L1015.09,1393.4Z" style="fill:white;"/>
                <path d="M1292.91,1235.95C1286.41,1237.33 1280.16,1239.2 1274.01,1241.06C1248.08,1248.91 1224.71,1260.72 1204.94,1277.88C1180.82,1298.8 1161.97,1326.31 1146.05,1355.48C1144.28,1358.7 1145.44,1362.75 1148.66,1364.52C1151.88,1366.3 1155.93,1365.13 1157.7,1361.91C1168.86,1342.14 1181.86,1323.64 1196.39,1307.03C1206.23,1295.78 1216.81,1285.44 1228.38,1276.35C1241.87,1265.76 1256.34,1256.27 1273,1250.24C1279.88,1247.75 1287.13,1246.03 1294.61,1244.61C1297,1244.14 1298.56,1241.83 1298.09,1239.43C1297.62,1237.05 1295.31,1235.49 1292.91,1235.95Z" style="fill:white;"/>
                <path d="M1333.54,1293.41C1330.32,1297.53 1326.87,1301.37 1323.64,1305.48C1322.27,1307.22 1321.03,1309.07 1319.71,1310.84C1302.15,1334.47 1281.66,1356.05 1259.53,1375.93C1245.72,1388.33 1231.21,1399.98 1216.49,1411.21C1201.58,1422.59 1186.47,1433.56 1171.2,1443.83C1168.87,1445.34 1168.21,1448.46 1169.73,1450.79C1171.25,1453.11 1174.37,1453.77 1176.69,1452.25C1195.57,1440.28 1214.46,1427.59 1232.52,1413.66C1250.49,1399.81 1267.63,1384.76 1283.66,1368.75C1300.93,1351.5 1317.55,1333.52 1330.64,1313.19C1333.95,1308.05 1336.71,1302.65 1339.54,1297.23C1340.59,1295.58 1340.1,1293.38 1338.45,1292.33C1336.8,1291.27 1334.6,1291.76 1333.54,1293.41Z" style="fill:white;"/>
                <path d="M1243.62,1495.06C1256.26,1490.42 1268.58,1485.38 1280.21,1479.15C1298.03,1469.61 1314.29,1457.79 1329.44,1444.84C1344.62,1431.86 1358.8,1417.6 1370.89,1401.38C1378.78,1390.8 1385.58,1379.33 1391.93,1367.38C1393.01,1365.54 1392.39,1363.16 1390.55,1362.08C1388.7,1361 1386.33,1361.61 1385.25,1363.46C1378.13,1374.47 1370.2,1384.63 1362.12,1394.54C1349.81,1409.64 1336.73,1423.79 1322.14,1436.31C1307.54,1448.83 1291.52,1459.59 1274.82,1469.66C1263.81,1476.29 1252.66,1482.83 1240.85,1488.52C1239.04,1489.28 1238.19,1491.37 1238.96,1493.17C1239.72,1494.98 1241.81,1495.83 1243.62,1495.06Z" style="fill:white;"/>
            </g>
            <g id="Layer3">
                <path d="M1710.5,1745.2L2285.49,1527.71" style="fill:none;stroke:black;stroke-width:13.73px;"/>
            </g>
        </g>
        <g transform="matrix(516.981,0,0,516.981,465.011,1100)">
            <path d="M0.115,-0.661L0.241,-0.679L0.204,-0.412L0.205,-0.412C0.209,-0.415 0.215,-0.42 0.223,-0.428C0.231,-0.436 0.24,-0.444 0.252,-0.452C0.281,-0.472 0.312,-0.483 0.345,-0.483C0.39,-0.483 0.419,-0.469 0.433,-0.443C0.448,-0.416 0.451,-0.375 0.443,-0.319L0.4,-0L0.276,-0L0.315,-0.288C0.319,-0.322 0.319,-0.345 0.315,-0.357C0.31,-0.369 0.298,-0.375 0.279,-0.375C0.262,-0.375 0.247,-0.37 0.233,-0.36C0.212,-0.343 0.198,-0.331 0.192,-0.323L0.147,-0L0.023,-0L0.115,-0.661Z" style="fill-rule:nonzero;"/>
        </g>
        <g transform="matrix(516.981,0,0,516.981,265.801,1100)">
            <path d="M0.056,-0.108C0.059,-0.107 0.064,-0.105 0.071,-0.101C0.078,-0.098 0.086,-0.094 0.096,-0.091C0.121,-0.083 0.142,-0.079 0.159,-0.079C0.176,-0.079 0.189,-0.082 0.199,-0.087C0.21,-0.093 0.216,-0.103 0.218,-0.118C0.22,-0.133 0.218,-0.145 0.211,-0.155C0.204,-0.166 0.194,-0.176 0.183,-0.185C0.172,-0.195 0.16,-0.205 0.147,-0.215C0.133,-0.226 0.121,-0.237 0.111,-0.251C0.086,-0.28 0.076,-0.314 0.081,-0.353C0.087,-0.392 0.105,-0.424 0.135,-0.447C0.166,-0.471 0.207,-0.483 0.259,-0.483C0.299,-0.483 0.337,-0.476 0.375,-0.464L0.356,-0.373C0.349,-0.374 0.337,-0.377 0.319,-0.383C0.302,-0.388 0.284,-0.391 0.264,-0.391C0.227,-0.391 0.206,-0.378 0.201,-0.353C0.2,-0.342 0.202,-0.331 0.21,-0.322C0.218,-0.313 0.227,-0.303 0.239,-0.294C0.25,-0.285 0.263,-0.275 0.277,-0.265C0.292,-0.254 0.304,-0.243 0.316,-0.231C0.343,-0.202 0.353,-0.168 0.347,-0.129C0.343,-0.09 0.326,-0.057 0.296,-0.029C0.264,-0.002 0.22,0.012 0.165,0.012C0.129,0.012 0.101,0.008 0.083,0.001C0.051,-0.01 0.031,-0.019 0.023,-0.025L0.056,-0.108Z" style="fill-rule:nonzero;"/>
        </g>
        <g transform="matrix(516.981,0,0,516.981,704.201,1100)">
            <path d="M0.183,-0.692C0.203,-0.692 0.219,-0.685 0.23,-0.671C0.241,-0.656 0.245,-0.638 0.242,-0.617C0.239,-0.595 0.23,-0.577 0.215,-0.563C0.2,-0.55 0.182,-0.543 0.162,-0.543C0.142,-0.543 0.126,-0.55 0.115,-0.563C0.103,-0.577 0.099,-0.595 0.101,-0.616C0.106,-0.638 0.116,-0.656 0.131,-0.671C0.146,-0.685 0.163,-0.692 0.183,-0.692ZM0.147,-0L0.023,-0L0.087,-0.464L0.215,-0.481L0.147,-0Z" style="fill-rule:nonzero;"/>
        </g>
        <g transform="matrix(516.981,0,0,516.981,837.237,1100)">
            <path d="M0.352,-0.583C0.341,-0.588 0.326,-0.591 0.306,-0.591C0.286,-0.591 0.272,-0.585 0.265,-0.573C0.258,-0.561 0.252,-0.54 0.248,-0.509L0.243,-0.472L0.328,-0.472L0.313,-0.381L0.231,-0.381L0.147,0.209L0.023,0.209L0.107,-0.381L0.056,-0.381L0.068,-0.472L0.117,-0.472L0.125,-0.527C0.133,-0.584 0.149,-0.626 0.173,-0.651C0.196,-0.677 0.226,-0.689 0.261,-0.689C0.308,-0.689 0.343,-0.683 0.368,-0.671C0.364,-0.644 0.359,-0.615 0.352,-0.583Z" style="fill-rule:nonzero;"/>
        </g>
        <g transform="matrix(516.981,0,0,516.981,1035.76,1100)">
            <path d="M0.309,-0.472L0.299,-0.381L0.196,-0.381L0.164,-0.155C0.16,-0.134 0.16,-0.119 0.164,-0.109C0.168,-0.1 0.177,-0.095 0.191,-0.095C0.206,-0.095 0.219,-0.097 0.229,-0.101C0.24,-0.105 0.247,-0.107 0.251,-0.108L0.251,-0.02C0.247,-0.019 0.242,-0.017 0.235,-0.013C0.228,-0.01 0.22,-0.006 0.211,-0.003C0.188,0.007 0.164,0.012 0.136,0.012C0.093,0.012 0.064,0.001 0.049,-0.022C0.034,-0.045 0.03,-0.083 0.037,-0.137L0.073,-0.381L0.023,-0.381L0.035,-0.472L0.085,-0.472L0.101,-0.585L0.228,-0.605L0.208,-0.472L0.309,-0.472Z" style="fill-rule:nonzero;"/>
        </g>
        <g transform="matrix(516.981,0,0,367.676,1874.65,1100)">
            <path d="M0.147,-0L0.023,-0L0.115,-0.661L0.241,-0.679L0.147,-0Z" style="fill-rule:nonzero;"/>
        </g>
        <g transform="matrix(516.981,0,0,516.981,1201.19,1100)">
            <path d="M0.056,0.108C0.096,0.121 0.135,0.128 0.172,0.128C0.199,0.128 0.216,0.124 0.224,0.117C0.241,0.102 0.252,0.077 0.259,0.041L0.275,-0.06L0.272,-0.06C0.225,-0.013 0.179,0.011 0.133,0.011C0.088,0.011 0.058,-0.003 0.044,-0.03C0.03,-0.057 0.026,-0.099 0.033,-0.155L0.079,-0.472L0.204,-0.472L0.163,-0.185C0.159,-0.148 0.159,-0.125 0.161,-0.117C0.168,-0.104 0.18,-0.097 0.199,-0.097C0.22,-0.097 0.244,-0.11 0.272,-0.136C0.278,-0.141 0.283,-0.145 0.287,-0.148L0.332,-0.472L0.456,-0.472L0.384,0.039C0.375,0.101 0.355,0.147 0.323,0.177C0.291,0.206 0.244,0.221 0.181,0.221C0.138,0.221 0.088,0.212 0.032,0.193L0.056,0.108Z" style="fill-rule:nonzero;"/>
        </g>
        <g transform="matrix(516.981,0,0,516.981,1614.09,1100)">
            <path d="M0.223,-0.325L0.189,-0.089C0.204,-0.082 0.221,-0.079 0.241,-0.079C0.272,-0.079 0.297,-0.09 0.316,-0.113C0.335,-0.136 0.348,-0.176 0.355,-0.231C0.363,-0.286 0.362,-0.324 0.353,-0.345C0.343,-0.367 0.326,-0.377 0.3,-0.377C0.274,-0.377 0.248,-0.36 0.223,-0.325ZM0.119,-0.472L0.235,-0.472L0.231,-0.411L0.232,-0.411C0.243,-0.423 0.257,-0.436 0.275,-0.448C0.308,-0.471 0.337,-0.483 0.362,-0.483C0.387,-0.483 0.408,-0.478 0.425,-0.468C0.442,-0.458 0.456,-0.444 0.467,-0.424C0.489,-0.38 0.495,-0.32 0.485,-0.243C0.474,-0.159 0.447,-0.095 0.405,-0.051C0.368,-0.009 0.322,0.012 0.268,0.012C0.234,0.012 0.204,0.006 0.177,-0.007L0.145,0.209L0.023,0.209L0.119,-0.472Z" style="fill-rule:nonzero;"/>
        </g>
        <g transform="matrix(516.981,0,0,516.981,2179.32,1100)">
            <path d="M0.288,-0.276C0.294,-0.321 0.293,-0.352 0.284,-0.369C0.275,-0.386 0.262,-0.395 0.246,-0.395C0.23,-0.395 0.213,-0.386 0.197,-0.369C0.18,-0.351 0.169,-0.32 0.163,-0.276L0.288,-0.276ZM0.229,-0.083C0.268,-0.083 0.308,-0.094 0.347,-0.116L0.36,-0.033C0.339,-0.017 0.303,-0.004 0.253,0.005C0.235,0.01 0.213,0.012 0.189,0.012C0.165,0.012 0.142,0.008 0.119,-0.001C0.097,-0.01 0.078,-0.024 0.064,-0.043C0.031,-0.085 0.02,-0.145 0.032,-0.223C0.044,-0.306 0.071,-0.372 0.115,-0.419C0.156,-0.461 0.204,-0.483 0.259,-0.483C0.342,-0.483 0.392,-0.443 0.407,-0.363C0.415,-0.321 0.412,-0.273 0.397,-0.219C0.395,-0.207 0.392,-0.2 0.391,-0.199L0.152,-0.199C0.146,-0.158 0.15,-0.128 0.166,-0.11C0.182,-0.092 0.203,-0.083 0.229,-0.083Z" style="fill-rule:nonzero;"/>
        </g>
        <g transform="matrix(516.981,0,0,516.981,2401.28,1100)">
            <path d="M0.147,-0L0.023,-0L0.115,-0.661L0.241,-0.679L0.147,-0Z" style="fill-rule:nonzero;"/>
        </g>
        <g transform="matrix(516.981,0,0,516.981,2535,1100)">
            <path d="M0.056,-0.108C0.059,-0.107 0.064,-0.105 0.071,-0.101C0.078,-0.098 0.086,-0.094 0.096,-0.091C0.121,-0.083 0.142,-0.079 0.159,-0.079C0.176,-0.079 0.189,-0.082 0.199,-0.087C0.21,-0.093 0.216,-0.103 0.218,-0.118C0.22,-0.133 0.218,-0.145 0.211,-0.155C0.204,-0.166 0.194,-0.176 0.183,-0.185C0.172,-0.195 0.16,-0.205 0.147,-0.215C0.133,-0.226 0.121,-0.237 0.111,-0.251C0.086,-0.28 0.076,-0.314 0.081,-0.353C0.087,-0.392 0.105,-0.424 0.135,-0.447C0.166,-0.471 0.207,-0.483 0.259,-0.483C0.299,-0.483 0.337,-0.476 0.375,-0.464L0.356,-0.373C0.349,-0.374 0.337,-0.377 0.319,-0.383C0.302,-0.388 0.284,-0.391 0.264,-0.391C0.227,-0.391 0.206,-0.378 0.201,-0.353C0.2,-0.342 0.202,-0.331 0.21,-0.322C0.218,-0.313 0.227,-0.303 0.239,-0.294C0.25,-0.285 0.263,-0.275 0.277,-0.265C0.292,-0.254 0.304,-0.243 0.316,-0.231C0.343,-0.202 0.353,-0.168 0.347,-0.129C0.343,-0.09 0.326,-0.057 0.296,-0.029C0.264,-0.002 0.22,0.012 0.165,0.012C0.129,0.012 0.101,0.008 0.083,0.001C0.051,-0.01 0.031,-0.019 0.023,-0.025L0.056,-0.108Z" style="fill-rule:nonzero;"/>
        </g>
    </g>
    <defs>
        <linearGradient id="_Linear1" x1="0" y1="0" x2="1" y2="0" gradientUnits="userSpaceOnUse" gradientTransform="matrix(2351.09,0,0,20310.9,316.361,1552)"><stop offset="0" style="stop-color:black;stop-opacity:1"/><stop offset="0.67" style="stop-color:rgb(154,0,56);stop-opacity:1"/><stop offset="0.85" style="stop-color:rgb(26,0,249);stop-opacity:1"/><stop offset="1" style="stop-color:black;stop-opacity:1"/></linearGradient>
        <linearGradient id="_Linear2" x1="0" y1="0" x2="1" y2="0" gradientUnits="userSpaceOnUse" gradientTransform="matrix(886.251,-3.82066,3.68301,919.375,840.97,1707.32)"><stop offset="0" style="stop-color:rgb(153,0,26);stop-opacity:1"/><stop offset="0.22" style="stop-color:rgb(150,0,54);stop-opacity:1"/><stop offset="0.5" style="stop-color:rgb(159,0,204);stop-opacity:1"/><stop offset="1" style="stop-color:rgb(8,0,255);stop-opacity:1"/></linearGradient>
    </defs>
</svg>
